#!OML:ASF F:\VICON\USERDATA\INSTALL\Justin_Nancy\Justin_Nancy.ASF
:FULLY-SPECIFIED
:DEGREES
33
root -8.61276 17.7778 -27.0741 -0.608128 -1.60387 -1.63749
lowerback 7.30967 -1.49578 -1.22125
upperback -0.511835 -1.92502 3.93448
thorax -4.46017 -0.880327 5.00563
lowerneck -12.6465 -1.91017 -11.363
upperneck 17.2888 -1.33548 5.49647
head 7.52362 -0.876544 3.55456
rclavicle 1.40392e-014 1.27222e-014
rhumerus -32.3307 -10.8677 -77.6079
rradius 27.595
rwrist 7.749
rhand -13.4829 11.9044
rfingers 7.12502
rthumb 12.6277 -17.6939
lclavicle 1.40392e-014 1.27222e-014
lhumerus -33.7817 15.8965 82.5072
lradius 26.7168
lwrist -10.7736
lhand -17.8355 22.2514
lfingers 7.12502
lthumb 8.42908 52.0632
rfemur -6.84611 1.82462 27.8043
rtibia 15.0037
rfoot -4.12863 -3.78828
rtoes 8.08955
lfemur -16.9241 0.500064 -18.3555
ltibia 63.6631
lfoot 3.05419 -2.35586
ltoes -10.2132
34
root -8.62687 17.7773 -26.9302 -0.744905 -1.6144 -1.8137
lowerback 7.37188 -1.28537 -0.983885
upperback -0.348448 -1.63083 3.82847
thorax -4.36164 -0.744621 4.72492
lowerneck -12.846 -2.15042 -11.118
upperneck 17.5028 -1.69058 5.46595
head 7.6587 -1.03494 3.47067
rclavicle 2.59911e-014 -1.11319e-014
rhumerus -31.83 -11.55 -77.4741
rradius 27.3925
rwrist 7.95818
rhand -12.9728 13.5187
rfingers 7.12502
rthumb 13.1195 -16.0486
lclavicle 2.59911e-014 -1.11319e-014
lhumerus -33.6268 15.259 82.7173
lradius 26.6119
lwrist -10.6419
lhand -17.5439 23.2982
lfingers 7.12502
lthumb 8.7105 53.0985
rfemur -6.04229 1.86621 28.0577
rtibia 14.8914
rfoot -4.46344 -3.92227
rtoes 8.74128
lfemur -17.7956 0.442649 -18.0498
ltibia 63.815
lfoot 2.14437 -1.84216
ltoes -9.46569
35
root -8.63836 17.7742 -26.7889 -0.827531 -1.72728 -1.94392
lowerback 7.34676 -1.11105 -0.780972
upperback -0.183853 -1.38902 3.72759
thorax -4.20405 -0.634558 4.47217
lowerneck -13.0669 -2.21872 -11.0583
upperneck 17.5511 -1.81912 5.70846
head 7.72508 -1.06762 3.52987
rclavicle -1.6524e-014 4.05521e-014
rhumerus -31.1911 -11.4294 -77.8161
rradius 27.6239
rwrist 7.46945
rhand -12.4869 13.4988
rfingers 7.12502
rthumb 13.5878 -16.0378
lclavicle -1.6524e-014 4.05521e-014
lhumerus -33.3929 14.9902 82.7382
lradius 26.4459
lwrist -10.8732
lhand -17.8012 22.6132
lfingers 7.12502
lthumb 8.46218 52.4237
rfemur -5.55899 1.85117 28.271
rtibia 14.9999
rfoot -4.83669 -3.93625
rtoes 9.02217
lfemur -18.6238 0.482364 -17.8216
ltibia 63.7557
lfoot 1.02655 -1.46579
ltoes -8.1019
36
root -8.64643 17.7652 -26.6521 -0.77908 -1.89954 -1.98419
lowerback 7.258 -1.00716 -0.567981
upperback -0.0351167 -1.24355 3.57118
thorax -4.01877 -0.572577 4.16497
lowerneck -13.4952 -2.23234 -10.8957
upperneck 17.5901 -1.83933 5.78838
head 7.81402 -1.05394 3.52843
rclavicle 2.50966e-015 1.11319e-014
rhumerus -30.4888 -10.6657 -78.5742
rradius 28.1841
rwrist 7.01618
rhand -12.5947 12.1023
rfingers 7.12502
rthumb 13.4839 -17.4412
lclavicle 2.50966e-015 1.11319e-014
lhumerus -33.107 15.1158 82.5551
lradius 26.2455
lwrist -10.7365
lhand -17.5795 21.9558
lfingers 7.12502
lthumb 8.67614 51.7575
rfemur -5.38574 1.87603 28.3726
rtibia 15.3956
rfoot -5.43742 -3.9592
rtoes 8.58757
lfemur -19.6475 0.560273 -17.7531
ltibia 63.5433
lfoot 0.310227 -1.19772
ltoes -6.84938
37
root -8.65422 17.7529 -26.5131 -0.68437 -2.15749 -2.06846
lowerback 7.10137 -0.813367 -0.364364
upperback 0.0804315 -0.977787 3.4585
thorax -3.83575 -0.448909 3.89718
lowerneck -13.6915 -2.324 -10.761
upperneck 17.5424 -1.98178 5.84082
head 7.84441 -1.10408 3.50763
rclavicle -3.23025e-015 -3.4191e-014
rhumerus -29.901 -9.93577 -79.1996
rradius 28.7455
rwrist 6.96416
rhand -13.6698 10.0721
rfingers 7.12502
rthumb 12.4475 -19.5373
lclavicle -3.23025e-015 -3.4191e-014
lhumerus -32.9817 14.9475 82.5929
lradius 26.2393
lwrist -10.3251
lhand -17.2498 22.4345
lfingers 7.12502
lthumb 8.99432 52.2228
rfemur -5.20069 1.93445 28.5137
rtibia 15.8166
rfoot -6.06458 -3.90557
rtoes 8.46779
lfemur -20.6878 0.76404 -17.6262
ltibia 63.2416
lfoot -0.413527 -0.928592
ltoes -6.14489
